<?xml version="1.0" encoding="utf-8"?>
<!-- Generator: Adobe Illustrator 24.1.3, SVG Export Plug-In . SVG Version: 6.00 Build 0)  -->
<svg version="1.1" id="Warstwa_1" xmlns="http://www.w3.org/2000/svg" xmlns:xlink="http://www.w3.org/1999/xlink" x="0px" y="0px"
	 viewBox="0 0 100 100" style="enable-background:new 0 0 100 100;" xml:space="preserve">
<style type="text/css">
	.st0{fill:#BEBEC6;}
	.st1{fill:#BEBEC6;stroke:#BEBEC6;stroke-width:2.5;stroke-linecap:round;stroke-linejoin:round;stroke-miterlimit:10;}
</style>
<g>
	<path class="st0" d="M79.5,29.7c-16.6,0-33.2,0-49.8,0H24c0.2,0.7,0.5,1.5,0.7,2.2c3.1,9.7,6.3,19.5,9.4,29.2
		c0.1,0.5,0.1,0.6-0.4,0.9c-2.5,1.4-3.8,3.9-3.2,6.3c0.6,2.6,2.5,4.3,5.5,5c3,0.6,5.5-0.2,7.4-2.3c1.9-2.2,2-4.5,0.6-6.9
		c-0.1-0.2-0.2-0.3-0.4-0.5h18.5c-0.1,0.2-0.2,0.5-0.4,0.6c-1.4,2.3-1.1,5.1,0.8,7c2,1.9,5.2,2.7,8,1.8c2.8-0.8,4.8-3.1,5-5.7
		c0.1-3.5-3.2-6.5-7.4-6.5c-10,0-20.1,0-30,0h-0.9c-0.4-1.1-0.7-2.3-1.1-3.4c0.7,0,1.2,0.1,1.8,0.1h30.1c3.3,0,5.7-1.5,6.5-4.2
		c1.9-5.9,3.8-12,5.7-17.9c0.4-1.4,0.8-2.6,1.3-3.9v-0.8C81.3,29.9,80.6,29.7,79.5,29.7z M68.5,63.7c2.4,0,4.1,1.6,4.1,3.5
		c0,2.1-1.9,3.7-4.3,3.5c-2.4,0-4.3-1.6-4.3-3.5C64.3,65.3,66.2,63.7,68.5,63.7z M37.7,63.7c2.4,0,4.3,1.6,4.3,3.5
		c0,2.1-1.9,3.7-4.1,3.7c-2.4,0-4.3-1.6-4.3-3.5C33.5,65.3,35.4,63.7,37.7,63.7z M76.3,37.9c-1.5,4.9-3.1,9.8-4.6,14.7
		c-0.6,1.7-1.5,2.4-3.8,2.4H38.3c-2,0-3.1-0.7-3.7-2.3c-2.1-6.5-4.3-13.1-6.4-19.6c0-0.1-0.1-0.3-0.1-0.6H78
		C77.4,34.4,76.9,36.1,76.3,37.9z"/>
	<path class="st0" d="M79.4,32.2c-0.6,1.9-1.2,3.8-1.7,5.6c-1.6,5.1-3.2,10.3-4.8,15.4c-0.6,1.9-1.6,2.5-3.9,2.5
		c-10.4,0-20.6,0-31,0c-2.1,0-3.2-0.7-3.8-2.4c-2.2-6.8-4.4-13.7-6.7-20.5c0-0.2-0.1-0.4-0.1-0.6C44.7,32.2,62,32.2,79.4,32.2z"/>
	<path class="st0" d="M68.4,71.1c-2.6,0-4.7-1.8-4.7-3.9c0-2.1,2.1-4,4.7-3.9c2.6,0,4.7,1.8,4.7,3.9C73.2,69.4,71,71.1,68.4,71.1z"
		/>
	<path class="st0" d="M37.9,71.6c-2.8,0-5-1.9-5-4.2c0-2.4,2.2-4.3,5-4.3c2.8,0,5,1.9,5,4.2C42.9,69.7,40.7,71.6,37.9,71.6z"/>
	<polyline class="st1" points="26.2,31.2 23.9,26.5 18.2,26.5 	"/>
</g>
</svg>
