<svg width="346" height="279" viewBox="0 0 346 279" fill="none" xmlns="http://www.w3.org/2000/svg">
<g clip-path="url(#clip0_136_335)">
<path d="M174.953 278.601C269.309 278.601 345.799 272.625 345.799 265.254C345.799 257.882 269.309 251.906 174.953 251.906C80.5973 251.906 4.10687 257.882 4.10687 265.254C4.10687 272.625 80.5973 278.601 174.953 278.601Z" fill="#3F3D56"/>
<path d="M320.077 240.458L321.679 252.201L310.47 253.268L312.071 238.856L320.077 240.458Z" fill="#A0616A"/>
<path d="M267.235 79.2629C267.235 79.2629 268.303 93.6744 268.303 94.2082C268.303 94.7419 260.83 131.571 260.83 131.571C260.83 131.571 250.155 151.854 260.83 151.32C271.505 150.787 268.303 132.105 268.303 132.105L279.512 101.147L274.708 79.263L267.235 79.2629Z" fill="#A0616A"/>
<path d="M284.849 240.458L283.248 252.201L294.457 253.268L292.856 238.856L284.849 240.458Z" fill="#A0616A"/>
<path d="M272.573 130.504L269.904 134.24C269.904 134.24 268.303 150.253 269.904 155.59C271.505 160.928 274.708 185.481 274.708 187.082C274.708 188.683 275.242 189.751 274.708 190.285C274.174 190.818 272.573 190.818 273.64 191.886C274.708 192.953 274.708 196.156 274.708 196.156V198.825L281.647 238.323C281.647 238.323 277.377 243.127 280.579 243.127C283.782 243.127 295.524 243.127 294.991 237.789L293.923 237.255C293.923 237.255 292.322 202.027 292.856 200.426C293.389 198.825 292.856 195.622 292.856 195.622C292.856 195.622 291.788 194.021 292.856 193.487C293.923 192.953 293.923 188.683 293.923 188.683L298.727 156.124C298.727 156.124 302.997 178.008 305.666 180.143C308.335 182.278 307.801 187.616 307.801 187.616L309.936 234.587C309.936 234.587 307.801 239.924 309.936 240.992C312.071 242.059 321.145 245.795 321.679 240.458C322.212 235.12 324.881 188.683 324.881 186.548C324.881 184.413 324.347 183.346 324.881 181.744C325.415 180.143 324.347 180.143 324.881 180.143C325.415 180.143 323.814 178.542 323.814 177.474V151.32C323.814 151.32 324.347 145.983 324.881 144.915C325.415 143.848 324.347 142.78 324.881 141.179C325.415 139.578 323.814 134.24 323.814 134.24L299.795 127.835L272.573 130.504Z" fill="#2F2E41"/>
<path d="M291.254 250.066C291.254 250.066 293.923 247.397 290.187 247.397C287.788 247.446 285.426 247.991 283.248 248.998L280.579 258.606C280.579 258.606 269.637 267.413 281.914 266.345C294.19 265.278 292.322 266.078 292.322 266.078C292.322 266.078 296.058 265.011 296.592 263.943C297.126 262.876 295.524 247.397 295.524 247.397C295.524 247.397 293.923 251.667 291.254 250.066Z" fill="#2F2E41"/>
<path d="M314.206 250.066C314.206 250.066 311.537 247.397 315.273 247.397C317.672 247.446 320.035 247.991 322.212 248.998L324.881 258.606C324.881 258.606 335.823 267.413 323.547 266.345C311.27 265.278 311.537 266.078 311.537 266.078C311.537 266.078 307.801 265.011 307.267 263.943C306.733 262.876 309.936 247.397 309.936 247.397C309.936 247.397 311.537 251.667 314.206 250.066Z" fill="#2F2E41"/>
<path d="M279.512 37.0962C287.176 37.0962 293.389 30.883 293.389 23.2185C293.389 15.5541 287.176 9.34082 279.512 9.34082C271.847 9.34082 265.634 15.5541 265.634 23.2185C265.634 30.883 271.847 37.0962 279.512 37.0962Z" fill="#A0616A"/>
<path d="M274.708 33.3599C274.708 33.3599 276.843 44.0351 276.843 45.6363C276.843 47.2376 285.917 52.0414 285.917 52.0414L296.058 39.2312C296.058 39.2312 289.653 30.1574 289.653 28.0223L274.708 33.3599Z" fill="#A0616A"/>
<path d="M282.714 47.2376C282.714 47.2376 278.062 45.9993 276.652 43.9497C276.652 43.9497 261.898 58.4465 261.898 61.1153L273.64 81.9318C273.64 81.9318 273.64 89.4044 274.708 89.9382C275.775 90.4719 274.708 89.9382 274.708 92.0732C274.708 94.2083 271.505 108.086 272.573 110.221C273.64 112.356 274.708 110.755 273.64 113.957C272.573 117.16 269.904 134.24 269.904 134.24C269.904 134.24 279.512 131.038 293.389 136.375C307.267 141.713 323.814 134.24 323.814 134.24C323.814 134.24 319.544 124.632 320.611 121.43C321.679 118.227 317.942 112.356 317.942 112.356L315.273 63.2503C315.273 63.2503 319.01 41.3662 316.341 40.2987L311.003 38.1637L293.91 36.0629C293.91 36.0629 289.653 46.7038 282.714 47.2376Z" fill="#D0CDE1"/>
<path d="M267.235 57.379L261.898 61.1153C261.898 61.1153 259.229 69.1217 261.898 72.858C264.566 76.5943 265.634 81.9319 265.634 81.9319L276.309 80.8644L267.235 57.379Z" fill="#D0CDE1"/>
<path d="M268.916 8.5521L266.509 7.58838C266.509 7.58838 271.542 2.04696 278.545 2.52883L276.576 0.360424C276.576 0.360424 281.39 -1.56701 285.767 3.49253C288.068 6.15223 290.73 9.27855 292.389 12.8003H294.967L293.891 15.1695L297.657 17.5386L293.792 17.1131C294.158 19.1584 294.033 21.2615 293.426 23.2489L293.53 25.1215C293.53 25.1215 289.049 18.1893 289.049 17.2256V19.6349C289.049 19.6349 286.642 17.4666 286.642 16.021L285.329 17.7075L284.673 15.0572L276.576 17.7075L277.889 15.5391L272.855 16.2619L274.825 13.6117C274.825 13.6117 269.135 16.7438 268.916 19.394C268.697 22.0443 265.852 25.4173 265.852 25.4173L264.539 23.008C264.539 23.008 262.57 12.1661 268.916 8.5521Z" fill="#2F2E41"/>
<path d="M272.135 116.156H60.0299V265.153H272.135V116.156Z" fill="#FFFDFD"/>
<path d="M131.142 173.005H77.8849V265.974H131.142V173.005Z" fill="#3F3D56"/>
<path d="M102.082 178.582H87.736V191.955H102.082V178.582Z" fill="#FFFDFD"/>
<path d="M121.291 178.582H106.945V191.955H121.291V178.582Z" fill="#FFFDFD"/>
<path d="M102.082 196.819H87.736V210.678H102.082V196.819Z" fill="#FFFDFD"/>
<path d="M121.291 196.819H106.945V210.678H121.291V196.819Z" fill="#FFFDFD"/>
<path d="M124.369 229.135C126.24 229.135 127.756 227.619 127.756 225.748C127.756 223.878 126.24 222.362 124.369 222.362C122.499 222.362 120.983 223.878 120.983 225.748C120.983 227.619 122.499 229.135 124.369 229.135Z" fill="#F25287"/>
<path d="M254.28 164.179H148.997V252.531H254.28V164.179Z" fill="#3F3D56"/>
<path d="M294.3 144.206H37.8651L54.9628 108.459L58.7892 100.455L63.7951 89.9887L67.6214 81.9848L72.0573 72.7126H274.096L276.716 81.9848L278.978 89.9887L281.937 100.455L284.199 108.459L294.3 144.206Z" fill="#3F3D56"/>
<path d="M156.385 200.813H152.691V223.593H156.385V200.813Z" fill="#F25287"/>
<path d="M156.385 204.199H152.691V206.97H156.385V204.199Z" fill="#FFFDFD"/>
<path d="M156.385 217.437H152.691V220.207H156.385V217.437Z" fill="#FFFDFD"/>
<path d="M167.16 200.813H158.232V223.593H167.16V200.813Z" fill="#F25287"/>
<path d="M167.16 204.199H158.232V206.97H167.16V204.199Z" fill="#FFFDFD"/>
<path d="M167.16 217.437H158.232V220.207H167.16V217.437Z" fill="#FFFDFD"/>
<path d="M173.009 200.813H169.315V223.593H173.009V200.813Z" fill="#F25287"/>
<path d="M173.009 204.199H169.315V206.97H173.009V204.199Z" fill="#FFFDFD"/>
<path d="M173.009 217.437H169.315V220.207H173.009V217.437Z" fill="#FFFDFD"/>
<path d="M178.55 200.813H174.856V223.593H178.55V200.813Z" fill="#F25287"/>
<path d="M178.55 204.199H174.856V206.97H178.55V204.199Z" fill="#FFFDFD"/>
<path d="M178.55 217.437H174.856V220.207H178.55V217.437Z" fill="#FFFDFD"/>
<path d="M182.11 200.894L178.653 202.197L186.688 223.513L190.145 222.21L182.11 200.894Z" fill="#F25287"/>
<path d="M183.304 204.062L179.848 205.365L180.825 207.958L184.282 206.655L183.304 204.062Z" fill="#FFFDFD"/>
<path d="M187.973 216.449L184.517 217.752L185.494 220.344L188.951 219.041L187.973 216.449Z" fill="#FFFDFD"/>
<path d="M250.894 200.813H241.966V223.593H250.894V200.813Z" fill="#F25287"/>
<path d="M250.894 204.199H241.966V206.97H250.894V204.199Z" fill="#FFFDFD"/>
<path d="M250.894 217.437H241.966V220.207H250.894V217.437Z" fill="#FFFDFD"/>
<path d="M239.811 200.813H236.117V223.593H239.811V200.813Z" fill="#F25287"/>
<path d="M239.811 204.199H236.117V206.97H239.811V204.199Z" fill="#FFFDFD"/>
<path d="M239.811 217.437H236.117V220.207H239.811V217.437Z" fill="#FFFDFD"/>
<path d="M234.27 200.813H230.576V223.593H234.27V200.813Z" fill="#F25287"/>
<path d="M234.27 204.199H230.576V206.97H234.27V204.199Z" fill="#FFFDFD"/>
<path d="M234.27 217.437H230.576V220.207H234.27V217.437Z" fill="#FFFDFD"/>
<path d="M227.016 200.894L218.981 222.21L222.438 223.513L230.473 202.197L227.016 200.894Z" fill="#F25287"/>
<path d="M225.822 204.062L224.844 206.655L228.301 207.958L229.278 205.365L225.822 204.062Z" fill="#FFFDFD"/>
<path d="M221.153 216.449L220.175 219.041L223.632 220.344L224.609 217.752L221.153 216.449Z" fill="#FFFDFD"/>
<path d="M254.28 223.594H148.997V225.748H254.28V223.594Z" fill="#FFFDFD"/>
<path d="M214.26 200.813H194.866V223.593H214.26V200.813Z" fill="#F25287"/>
<path d="M209.489 205.739H199.638V210.048H209.489V205.739Z" fill="#FFFDFD"/>
<path d="M202.562 164.179H200.715V183.882H202.562V164.179Z" fill="#FFFDFD"/>
<path d="M201.638 186.96C203.339 186.96 204.717 185.582 204.717 183.882C204.717 182.181 203.339 180.803 201.638 180.803C199.938 180.803 198.56 182.181 198.56 183.882C198.56 185.582 199.938 186.96 201.638 186.96Z" fill="#FFFDFD"/>
<path d="M278.978 89.9888H63.795L67.6214 81.9849H276.716L278.978 89.9888Z" fill="#F25287"/>
<path d="M284.199 108.459H54.9628L58.7891 100.456H281.937L284.199 108.459Z" fill="#F25287"/>
<path d="M306.733 62.1827C306.733 62.1827 303.642 70.1308 304.288 77.9946C304.406 79.4026 304.88 80.7574 305.666 81.9318L267.799 99.9093C267.799 99.9093 250.689 101.681 254.959 109.153C259.229 116.626 274.708 105.417 274.708 105.417C274.708 105.417 315.273 99.5458 318.476 93.6744C321.679 87.8031 323.814 63.2502 323.814 63.2502L306.733 62.1827Z" fill="#A0616A"/>
<path d="M308.335 40.2987H316.341C316.341 40.2987 322.212 41.3662 323.814 52.0414C325.415 62.7165 327.016 65.3853 325.415 65.3853C323.814 65.3853 304.598 64.8516 304.598 64.3178C304.598 63.7841 308.335 40.2987 308.335 40.2987Z" fill="#D0CDE1"/>
<path d="M41.0688 199.749C63.7505 199.749 82.1376 181.362 82.1376 158.68C82.1376 135.998 63.7505 117.611 41.0688 117.611C18.3871 117.611 0 135.998 0 158.68C0 181.362 18.3871 199.749 41.0688 199.749Z" fill="#F25287"/>
<path opacity="0.1" d="M41.0688 193.999C60.575 193.999 76.3879 178.186 76.3879 158.68C76.3879 139.174 60.575 123.361 41.0688 123.361C21.5626 123.361 5.74963 139.174 5.74963 158.68C5.74963 178.186 21.5626 193.999 41.0688 193.999Z" fill="black"/>
<path d="M39.3764 179.522V174.381C36.7778 174.33 34.0896 173.414 32.5215 172.142L33.5967 168.732C35.4601 170.128 37.7199 170.895 40.0484 170.92C43.2295 170.92 45.3801 168.833 45.3801 165.932C45.3801 163.133 43.6327 161.402 40.3172 159.875C35.7473 157.84 32.9247 155.498 32.9247 151.07C32.9247 146.846 35.5681 143.639 39.6901 142.876V137.735H42.4678V142.672C44.5391 142.7 46.5595 143.318 48.2923 144.453L47.1721 147.813C45.5102 146.675 43.5409 146.071 41.5269 146.082C38.0772 146.082 36.7778 148.423 36.7778 150.459C36.7778 153.106 38.4355 154.429 42.3335 156.262C46.9481 158.399 49.278 161.046 49.278 165.576C49.278 169.597 46.8137 173.363 42.1989 174.228V179.522H39.3764Z" fill="#FFFDFD"/>
</g>
<defs>
<clipPath id="clip0_136_335">
<rect width="345.799" height="278.601" fill="white"/>
</clipPath>
</defs>
</svg>
